<svg xmlns="http://www.w3.org/2000/svg" width="26.699" height="30.807" viewBox="0 0 26.699 30.807">
  <g id="Group_9" data-name="Group 9" transform="translate(-254.056 -726.545)">
    <g id="Group_8" data-name="Group 8">
      <path id="Path_8" data-name="Path 8" d="M279.4,737.793a7.741,7.741,0,0,0-11.188-1.9,10.3,10.3,0,0,0-.37-1.659,6.72,6.72,0,0,0,4.045-1.483c2.094-1.868,2.024-5.156,2.02-5.295a.9.9,0,0,0-.789-.869c-.139-.017-3.443-.4-5.529,1.457a5.99,5.99,0,0,0-1.7,2.908,6.652,6.652,0,0,0-2.178-1.408.9.9,0,0,0-.667,1.678,5.668,5.668,0,0,1,3.315,4.507,7.734,7.734,0,0,0-10.963,2.061c-1.385,2.192-1.708,5.079-.932,8.353,1.389,5.875,7.4,11.206,10.559,11.206a3.309,3.309,0,0,0,2.374-1.19,3.309,3.309,0,0,0,2.374,1.19c1.767,0,4.043-1.569,5.689-3.15C281.22,748.659,281.851,741.665,279.4,737.793Zm-7.349-9.44c-.346,2.784-1.821,4.032-4.622,4.094C267.769,729.781,269.122,728.417,272.054,728.353Zm2.161,24.547c-1.842,1.772-3.575,2.649-4.417,2.649-.62,0-1.3-.822-1.665-1.331a.9.9,0,0,0-1.464,0c-.784,1.094-1.323,1.28-1.47,1.312-1.7.362-7.644-4.163-8.978-9.8-2.225-9.41,6.407-12.115,10.491-7.236a.9.9,0,0,0,1.381,0,6.01,6.01,0,0,1,9.788.265C279.842,741.862,279.382,747.925,274.215,752.9Z" fill="#fff"/>
    </g>
  </g>
</svg>
