<svg xmlns="http://www.w3.org/2000/svg" width="46.734" height="31.156" viewBox="0 0 46.734 31.156">
  <path id="Path_7" data-name="Path 7" d="M206.615,489.26a9.768,9.768,0,0,0-3.514.649l-2.67-5.54v-4.557h4.792a2.038,2.038,0,0,0,2.053-2.019.684.684,0,0,0-1.369,0,.68.68,0,0,1-.684.674h-5.476a.678.678,0,0,0-.684.673v5.056l-5.968,4.633a2.089,2.089,0,0,1-1.274.434H189.1l-2.425-5.029a.689.689,0,0,0-.911-.32.667.667,0,0,0-.325.9l6.4,13.286h-2.958a9.526,9.526,0,1,0-.433,3.568.669.669,0,0,0-.443-.845.688.688,0,0,0-.861.435,8.155,8.155,0,1,1,.364-3.159h-1.375a6.817,6.817,0,1,0,0,1.347h6.789a.687.687,0,0,0,.62-.388l6.206-12.958,2.116,4.391a9.493,9.493,0,0,0-4.926,8.281,9.677,9.677,0,1,0,9.676-9.507Zm-27.384,14.979a5.472,5.472,0,1,1,5.525-6.145h-5.525a.673.673,0,1,0,0,1.347h5.525A5.542,5.542,0,0,1,179.231,504.239Zm13.69-7.047-3.174-6.585h2.074a3.48,3.48,0,0,0,2.122-.725l3.945-3.064Zm13.694,9.738a8.245,8.245,0,0,1-8.306-8.164,8.143,8.143,0,0,1,4.143-7.061l.589,1.22a6.8,6.8,0,0,0-3.364,5.841,6.938,6.938,0,1,0,6.937-6.817,7.046,7.046,0,0,0-2.336.4l-.589-1.22a8.381,8.381,0,0,1,2.926-.524,8.164,8.164,0,1,1,0,16.326Zm.618-8.452-2.365-4.906a5.644,5.644,0,0,1,1.747-.277,5.472,5.472,0,1,1-5.568,5.47,5.45,5.45,0,0,1,2.586-4.616l2.364,4.9a.685.685,0,0,0,.618.386.716.716,0,0,0,.293-.065.669.669,0,0,0,.325-.9Z" transform="translate(-169.557 -477.119)" fill="#fff"/>
</svg>
