<svg xmlns="http://www.w3.org/2000/svg" width="34.002" height="24.999" viewBox="0 0 34.002 24.999">
  <g id="Menu" transform="translate(-16.009 -16.398)">
    <g id="Group_5" data-name="Group 5">
      <g id="Group_4" data-name="Group 4">
        <g id="Group_1" data-name="Group 1">
          <path id="Path_1" data-name="Path 1" d="M39.6,19.821H17.97a1.854,1.854,0,0,1-1.961-1.707A1.855,1.855,0,0,1,17.97,16.4H39.6a1.855,1.855,0,0,1,1.961,1.716A1.854,1.854,0,0,1,39.6,19.821Z" fill="#fff"/>
        </g>
        <g id="Group_2" data-name="Group 2">
          <path id="Path_2" data-name="Path 2" d="M48.061,30.613H17.97a1.732,1.732,0,1,1,0-3.433H48.061a1.73,1.73,0,1,1,0,3.433Z" fill="#fff"/>
        </g>
        <g id="Group_3" data-name="Group 3">
          <path id="Path_3" data-name="Path 3" d="M28.783,41.4H17.97a1.727,1.727,0,1,1,0-3.423H28.783a1.727,1.727,0,1,1,0,3.423Z" fill="#fff"/>
        </g>
      </g>
    </g>
  </g>
</svg>
