<svg xmlns="http://www.w3.org/2000/svg" width="7.344" height="22.032" viewBox="0 0 7.344 22.032">
  <g id="Vector_Smart_Object" data-name="Vector Smart Object" transform="translate(-1244.055 -553.037)">
    <g id="Vector_Smart_Object-2" data-name="Vector Smart Object" transform="matrix(1, 0, 0, 1, -1892.376, 197.64)">
      <g id="Group_35" data-name="Group 35">
        <g id="Group_34" data-name="Group 34">
          <path id="Path_13" data-name="Path 13" d="M3143.776,357.442c0,1.129-1.645,2.045-3.672,2.045s-3.672-.916-3.672-2.045,1.645-2.045,3.672-2.045S3143.776,356.313,3143.776,357.442Z" fill="#4d4b54"/>
          <path id="Path_14" data-name="Path 14" d="M3143.776,366.415c0,1.129-1.645,2.045-3.672,2.045s-3.672-.916-3.672-2.045,1.645-2.047,3.672-2.047S3143.776,365.283,3143.776,366.415Z" fill="#4d4b54"/>
          <path id="Path_15" data-name="Path 15" d="M3143.776,375.385c0,1.129-1.645,2.045-3.672,2.045s-3.672-.916-3.672-2.045,1.645-2.045,3.672-2.045S3143.776,374.256,3143.776,375.385Z" fill="#4d4b54"/>
        </g>
      </g>
    </g>
    <path id="Color_Overlay" data-name="Color Overlay" d="M1244.056,573.025c0-1.129,1.645-2.044,3.672-2.044s3.672.915,3.672,2.044-1.645,2.045-3.672,2.045S1244.056,574.154,1244.056,573.025Zm0-8.969c0-1.132,1.645-2.048,3.672-2.048s3.672.915,3.672,2.048-1.645,2.044-3.672,2.044S1244.056,565.184,1244.056,564.055Zm0-8.973c0-1.129,1.645-2.045,3.672-2.045s3.672.916,3.672,2.045-1.645,2.045-3.672,2.045S1244.056,556.211,1244.056,555.082Z"/>
  </g>
</svg>
