<svg xmlns="http://www.w3.org/2000/svg" width="39.844" height="34.53" viewBox="0 0 39.844 34.53">
  <g id="Group_7" data-name="Group 7" transform="translate(-335.605 -659.668)">
    <g id="Group_6" data-name="Group 6">
      <path id="Path_4" data-name="Path 4" d="M335.949,674.789l17.929,17.719a5.836,5.836,0,0,0,4.128,1.69H371.17a4.261,4.261,0,0,0,4.279-4.229v-4.358a7.357,7.357,0,0,0-7.393-7.3H366.65l-.793-1.446.469-.152a1.151,1.151,0,0,0,.736-1.46,1.168,1.168,0,0,0-1.475-.73l-.858.284-1.017-1.848.278-.093a1.151,1.151,0,0,0,.739-1.457,1.17,1.17,0,0,0-1.477-.73l-.668.219-1.137-2.07a1.175,1.175,0,0,0-.864-.593,7.744,7.744,0,0,1-6.524-6.034,3.2,3.2,0,0,0-3.137-2.53,3.2,3.2,0,0,0-2.265.927l-9.4,9.3,0,0-3.3,3.263A1.141,1.141,0,0,0,335.949,674.789Zm37.164,12.487H358.489l-16.764-16.567,8.584-8.483a.867.867,0,0,1,.614-.25.855.855,0,0,1,.611.25.883.883,0,0,1,.239.444,10.077,10.077,0,0,0,7.89,7.747l.671,1.219-1.75.578a1.146,1.146,0,0,0-.739,1.457,1.167,1.167,0,0,0,1.108.789,1.224,1.224,0,0,0,.369-.059l2.142-.7,1.014,1.848-1.563.514a1.15,1.15,0,0,0-.736,1.46,1.164,1.164,0,0,0,1.105.789,1.133,1.133,0,0,0,.369-.062l1.955-.643,1.318,2.406a1.17,1.17,0,0,0,1.029.6h2.1a5.034,5.034,0,0,1,5.058,5Zm-34.69-13.3,1.651-1.632,17.1,16.907a1.177,1.177,0,0,0,.827.337h15.107v.385a1.935,1.935,0,0,1-1.943,1.921H358.006a3.507,3.507,0,0,1-2.478-1.011Z" fill="#089bab"/>
      <path id="Path_5" data-name="Path 5" d="M335.605,690.505a1.161,1.161,0,0,0,1.168,1.154h9.339a1.153,1.153,0,1,0,0-2.305h-9.339A1.16,1.16,0,0,0,335.605,690.505Z" fill="#089bab"/>
      <path id="Path_6" data-name="Path 6" d="M335.605,685.892a1.161,1.161,0,0,0,1.168,1.154h4.668a1.154,1.154,0,1,0,0-2.308h-4.668A1.161,1.161,0,0,0,335.605,685.892Z" fill="#089bab"/>
    </g>
  </g>
</svg>
